<mxfile host="app.diagrams.net" modified="2024-03-22T13:11:18.583Z" agent="Mozilla/5.0 (Windows NT 10.0; Win64; x64) AppleWebKit/537.36 (KHTML, like Gecko) Chrome/122.0.0.0 Safari/537.36 Edg/122.0.0.0" etag="qh-VyCb30L34vGVUaeE8" version="24.0.7" type="device">
  <diagram name="Page-1" id="ORnPTh3npH-ke8jxG14F">
    <mxGraphModel dx="1002" dy="569" grid="1" gridSize="10" guides="1" tooltips="1" connect="1" arrows="1" fold="1" page="1" pageScale="1" pageWidth="850" pageHeight="1100" math="0" shadow="0">
      <root>
        <mxCell id="0" />
        <mxCell id="1" parent="0" />
        <mxCell id="WV7y1_IpErf_u2PDvJTR-1" value="Hotel Room Booking System" style="swimlane;whiteSpace=wrap;html=1;" parent="1" vertex="1">
          <mxGeometry x="215" y="100" width="420" height="430" as="geometry" />
        </mxCell>
        <mxCell id="WV7y1_IpErf_u2PDvJTR-3" value="Search rooms" style="ellipse;whiteSpace=wrap;html=1;" parent="WV7y1_IpErf_u2PDvJTR-1" vertex="1">
          <mxGeometry x="14" y="50" width="106" height="60" as="geometry" />
        </mxCell>
        <mxCell id="WV7y1_IpErf_u2PDvJTR-6" value="Make a reservation" style="ellipse;whiteSpace=wrap;html=1;" parent="WV7y1_IpErf_u2PDvJTR-1" vertex="1">
          <mxGeometry x="35" y="120" width="106" height="60" as="geometry" />
        </mxCell>
        <mxCell id="WV7y1_IpErf_u2PDvJTR-5" value="View Booking Details" style="ellipse;whiteSpace=wrap;html=1;" parent="WV7y1_IpErf_u2PDvJTR-1" vertex="1">
          <mxGeometry x="55" y="280" width="120" height="70" as="geometry" />
        </mxCell>
        <mxCell id="WV7y1_IpErf_u2PDvJTR-7" value="Receive Booking Confirmation" style="ellipse;whiteSpace=wrap;html=1;" parent="WV7y1_IpErf_u2PDvJTR-1" vertex="1">
          <mxGeometry x="115" y="200" width="110" height="70" as="geometry" />
        </mxCell>
        <mxCell id="WV7y1_IpErf_u2PDvJTR-28" style="rounded=0;orthogonalLoop=1;jettySize=auto;html=1;entryX=0.249;entryY=0.913;entryDx=0;entryDy=0;entryPerimeter=0;dashed=1;" parent="WV7y1_IpErf_u2PDvJTR-1" source="WV7y1_IpErf_u2PDvJTR-7" target="WV7y1_IpErf_u2PDvJTR-6" edge="1">
          <mxGeometry relative="1" as="geometry" />
        </mxCell>
        <mxCell id="WV7y1_IpErf_u2PDvJTR-29" value="extends" style="edgeLabel;html=1;align=center;verticalAlign=middle;resizable=0;points=[];" parent="WV7y1_IpErf_u2PDvJTR-28" vertex="1" connectable="0">
          <mxGeometry x="-0.1077" y="1" relative="1" as="geometry">
            <mxPoint as="offset" />
          </mxGeometry>
        </mxCell>
        <mxCell id="P4F1td_gvrzvlL1YNcWB-2" value="" style="endArrow=classic;html=1;rounded=0;" parent="WV7y1_IpErf_u2PDvJTR-1" source="WV7y1_IpErf_u2PDvJTR-2" edge="1">
          <mxGeometry width="50" height="50" relative="1" as="geometry">
            <mxPoint x="-15" y="160" as="sourcePoint" />
            <mxPoint x="35" y="110" as="targetPoint" />
          </mxGeometry>
        </mxCell>
        <mxCell id="P4F1td_gvrzvlL1YNcWB-7" value="" style="endArrow=classic;html=1;rounded=0;exitX=1;exitY=1;exitDx=0;exitDy=0;exitPerimeter=0;" parent="WV7y1_IpErf_u2PDvJTR-1" source="WV7y1_IpErf_u2PDvJTR-2" edge="1">
          <mxGeometry width="50" height="50" relative="1" as="geometry">
            <mxPoint x="14" y="350" as="sourcePoint" />
            <mxPoint x="64" y="300" as="targetPoint" />
          </mxGeometry>
        </mxCell>
        <mxCell id="WV7y1_IpErf_u2PDvJTR-2" value="Guest" style="shape=umlActor;verticalLabelPosition=bottom;verticalAlign=top;html=1;outlineConnect=0;" parent="1" vertex="1">
          <mxGeometry x="100" y="230" width="70" height="80" as="geometry" />
        </mxCell>
        <mxCell id="P4F1td_gvrzvlL1YNcWB-4" value="" style="endArrow=classic;html=1;rounded=0;entryX=-0.015;entryY=0.673;entryDx=0;entryDy=0;entryPerimeter=0;" parent="1" target="WV7y1_IpErf_u2PDvJTR-6" edge="1">
          <mxGeometry width="50" height="50" relative="1" as="geometry">
            <mxPoint x="180" y="310" as="sourcePoint" />
            <mxPoint x="230" y="260" as="targetPoint" />
          </mxGeometry>
        </mxCell>
      </root>
    </mxGraphModel>
  </diagram>
</mxfile>
